PathFileType	4	(X/Y/Z)	C:/Users/opensim2020/Desktop/walking_exp_matlab/subject01_walking17_run.trc																																																																																																																																																																																					
DataRate	CameraRate	NumFrames	NumMarkers	Units	OrigDataRate	OrigDataStartFrame	OrigNumFrames																																																																																																																																																																																	
100	100	7	61	mm	100	303	87																																																																																																																																																																																	
Frame#	Time	LTHI			LKNE			RELB			STRN			RWRA			LSHO			RFRM			RUPA			RSHO			RASI			RBHD			RFIN			LFHD			RFHD			CLAV			LHEE			RWRB			LASI			LBHD			LWRA			LTIB			RTHI			LWRB			LTOE			RKNE			C7			LFRM			LFIN			LUPA			LELB			RTIB			RTOE			RBAK			RANK			T10			LPSI			LANK			RHEE			RPSI			*39			*40			*41			*42			*43			*44			*45			*46			*47			*48			*49			*50			*51			*52			*53			*54			*55			*56			*57			*58			*59			*60		
		X1	Y1	Z1	X2	Y2	Z2	X3	Y3	Z3	X4	Y4	Z4	X5	Y5	Z5	X6	Y6	Z6	X7	Y7	Z7	X8	Y8	Z8	X9	Y9	Z9	X10	Y10	Z10	X11	Y11	Z11	X12	Y12	Z12	X13	Y13	Z13	X14	Y14	Z14	X15	Y15	Z15	X16	Y16	Z16	X17	Y17	Z17	X18	Y18	Z18	X19	Y19	Z19	X20	Y20	Z20	X21	Y21	Z21	X22	Y22	Z22	X23	Y23	Z23	X24	Y24	Z24	X25	Y25	Z25	X26	Y26	Z26	X27	Y27	Z27	X28	Y28	Z28	X29	Y29	Z29	X30	Y30	Z30	X31	Y31	Z31	X32	Y32	Z32	X33	Y33	Z33	X34	Y34	Z34	X35	Y35	Z35	X36	Y36	Z36	X37	Y37	Z37	X38	Y38	Z38	X39	Y39	Z39	X40	Y40	Z40	X41	Y41	Z41	X42	Y42	Z42	X43	Y43	Z43	X44	Y44	Z44	X45	Y45	Z45	X46	Y46	Z46	X47	Y47	Z47	X48	Y48	Z48	X49	Y49	Z49	X50	Y50	Z50	X51	Y51	Z51	X52	Y52	Z52	X53	Y53	Z53	X54	Y54	Z54	X55	Y55	Z55	X56	Y56	Z56	X57	Y57	Z57	X58	Y58	Z58	X59	Y59	Z59	X60	Y60	Z60	X61	Y61	Z61
																																																																																																																																																																																								
33	0.32	-557.11066	555.97296	-539.45886	-528.56982	425.72382	-513.49066	-700.42194	1121.26794	-89.38324	-446.2912	1125.88672	-415.37057	-579.10681	908.97638	-164.67729	-512.71075	1296.30054	-591.4007	-660.71576	992.53516	-93.61177	-648.83154	1224.33325	-149.85905	-513.57965	1334.45093	-278.2543	-565.3313	878.00604	-288.10327	-585.80249	1542.05298	-363.78616	-544.76428	844.73584	-135.89124	-500.84341	1609.30518	-493.00842	-487.91077	1619.75867	-381.5961	-460.4744	1287.38367	-427.80914	-754.96393	51.47721	-377.87729	-606.34192	883.54865	-120.25674	-574.55524	886.75916	-496.38052	-598.28223	1534.31873	-482.16766	-370.40231	918.9884	-602.22876	-604.98328	256.15237	-503.50461	-515.71106	564.74548	-211.50253	-381.80444	868.12421	-633.69025	-565.0144	29.56194	-443.25308	-481.21811	413.95828	-241.05524	-594.62115	1376.10339	-438.76816	-478.59271	924.15161	-685.39136	-305.89777	876.80933	-608.44556	-564.36035	1128.14099	-683.40198	-582.56714	980.46362	-717.30634	-650.58472	381.06296	-230.55705	-854.25031	188.65637	-247.16306	-684.49939	1211.6947	-343.72263	-847.76477	330.32813	-267.00113	-695.63043	1107.8385	-399.82513	-753.07965	905.14618	-434.892	-703.19641	69.11182	-433.64587	-899.47296	358.45465	-320.29755	-741.24744	892.42603	-291.50159	1973.10449	1023.30322	-3101.94727	2012.44788	1022.03278	-3140.62549	NaN	NaN	NaN	-511.03592	1645.94141	-403.61203	NaN	NaN	NaN	NaN	NaN	NaN	NaN	NaN	NaN	NaN	NaN	NaN	NaN	NaN	NaN	NaN	NaN	NaN	NaN	NaN	NaN	NaN	NaN	NaN	NaN	NaN	NaN	NaN	NaN	NaN	NaN	NaN	NaN	NaN	NaN	NaN	NaN	NaN	NaN	NaN	NaN	NaN	NaN	NaN	NaN	NaN	NaN	NaN	NaN	NaN	NaN	NaN	NaN	NaN
34	0.33	-524.70398	554.23151	-539.80225	-505.80151	421.32474	-513.36432	-665.51062	1131.12891	-89.06597	-401.75516	1124.2251	-413.24481	-556.1521	907.29211	-148.776	-462.1044	1294.12048	-590.13446	-633.58411	999.4516	-84.68697	-610.51727	1228.34692	-153.07649	-471.69418	1333.87708	-279.19031	-523.06921	876.97723	-287.96085	-542.28827	1540.6759	-366.55872	-525.91083	843.09644	-116.10153	-455.82523	1607.63623	-494.89804	-444.20273	1618.42139	-383.36829	-415.3923	1286.29944	-426.71878	-755.16046	56.80309	-379.23914	-586.41858	885.31024	-103.39955	-535.45941	882.65234	-500.27292	-553.23328	1532.68323	-485.02698	-302.12662	933.9328	-585.96979	-592.43457	256.10782	-505.10037	-448.14935	575.93591	-213.73096	-307.40594	881.5127	-616.59326	-566.24994	29.40891	-443.56143	-401.42511	428.78043	-246.71292	-550.15271	1374.28833	-441.55411	-406.04352	928.59137	-673.2785	-233.52116	897.49103	-588.03778	-503.81369	1122.96399	-680.92896	-514.23199	974.88019	-711.31476	-567.95502	385.92569	-232.14117	-754.93439	178.05275	-244.61414	-641.22418	1211.33496	-346.21332	-762.76709	319.14935	-264.80753	-651.8205	1107.24854	-402.42065	-709.70612	906.3075	-434.55777	-702.40088	72.12731	-434.94006	-818.85571	342.22702	-316.68161	-698.18604	896.52423	-292.8382	1973.04224	1023.63226	-3101.94141	2012.46924	1022.07941	-3140.70117	NaN	NaN	NaN	-468.09781	1644.93848	-405.78928	NaN	NaN	NaN	NaN	NaN	NaN	NaN	NaN	NaN	NaN	NaN	NaN	NaN	NaN	NaN	NaN	NaN	NaN	NaN	NaN	NaN	NaN	NaN	NaN	NaN	NaN	NaN	NaN	NaN	NaN	NaN	NaN	NaN	NaN	NaN	NaN	NaN	NaN	NaN	NaN	NaN	NaN	NaN	NaN	NaN	NaN	NaN	NaN	NaN	NaN	NaN	NaN	NaN	NaN
35	0.34	-493.61578	550.64014	-540.49854	-482.22574	416.73944	-513.4754	-630.91144	1142.05359	-88.71978	-358.10995	1123.7157	-411.34015	-531.37714	910.10443	-135.85886	-411.81882	1294.35193	-588.33453	-605.33441	1008.94318	-77.35499	-571.77612	1234.13574	-155.97897	-429.94589	1334.03943	-279.78995	-478.75952	878.6828	-288.78064	-498.38016	1540.63098	-368.68661	-504.32809	846.30426	-99.63804	-410.59052	1606.73877	-496.61237	-400.05411	1618.23022	-384.99615	-370.16901	1286.16931	-425.12634	-755.2962	64.40694	-381.229	-563.00275	892.49377	-89.66058	-487.02307	882.66089	-501.64771	-508.10364	1531.92749	-487.23126	-237.31276	953.24982	-570.51935	-581.19049	256.26447	-505.89227	-382.86304	589.14905	-217.8542	-236.14188	900.00238	-599.09253	-567.83282	29.48518	-443.82986	-323.75473	447.45282	-253.26068	-505.95157	1373.20154	-443.46375	-336.42282	935.63525	-660.42792	-165.01151	923.46399	-567.85669	-444.32376	1120.74878	-677.63226	-446.89874	971.25012	-704.5777	-486.21375	392.29425	-234.44696	-652.6026	167.58563	-242.54979	-597.8866	1211.41772	-348.78873	-676.42603	306.71078	-263.14691	-607.54199	1106.91724	-405.25699	-666.97845	907.48755	-435.33948	-701.86755	76.94558	-436.75464	-736.25024	323.68997	-313.69238	-654.61261	899.72632	-294.87689	1973.08105	1023.83966	-3101.91919	2012.61206	1022.10205	-3140.79175	NaN	NaN	NaN	-423.47446	1644.90332	-407.77094	NaN	NaN	NaN	NaN	NaN	NaN	NaN	NaN	NaN	NaN	NaN	NaN	NaN	NaN	NaN	NaN	NaN	NaN	NaN	NaN	NaN	NaN	NaN	NaN	NaN	NaN	NaN	NaN	NaN	NaN	NaN	NaN	NaN	NaN	NaN	NaN	NaN	NaN	NaN	NaN	NaN	NaN	NaN	NaN	NaN	NaN	NaN	NaN	NaN	NaN	NaN	NaN	NaN	NaN
36	0.35	-463.38019	546.98126	-541.08557	-460.12045	411.02594	-514.40845	-597.16302	1153.97302	-88.34792	-313.24741	1124.76404	-409.07843	-504.21286	917.33521	-125.27739	-362.33505	1296.77136	-586.64929	-576.09637	1020.46423	-71.5393	-533.49487	1241.8501	-158.04726	-388.19733	1335.18616	-279.6861	-434.37296	881.49341	-290.51422	-454.12473	1541.79187	-370.09821	-479.61774	853.61237	-86.37347	-365.41202	1606.88843	-497.91412	-355.84738	1619.34827	-386.30212	-325.00595	1287.35266	-422.9183	-754.22003	75.00948	-383.47787	-537.07178	902.95508	-78.85732	-443.34836	880.83453	-503.83578	-462.82654	1531.96252	-488.65567	-175.79652	976.40491	-554.88184	-572.27509	256.92694	-506.70801	-320.74963	604.50201	-223.48274	-168.68234	922.28937	-581.13074	-569.21368	29.36091	-444.21939	-249.09192	469.1983	-260.53445	-461.36285	1373.40186	-444.54999	-269.80725	945.61127	-647.49286	-101.51982	953.24347	-548.67987	-386.10187	1121.14392	-674.44354	-380.57193	970.47559	-697.38196	-406.10971	399.6524	-237.76285	-548.4447	159.38997	-241.86177	-554.49396	1212.17969	-351.85065	-588.39417	293.68854	-262.32101	-562.7439	1107.35767	-407.87909	-622.97406	908.40106	-436.77637	-700.69324	83.40456	-438.82645	-651.10028	303.69791	-311.685	-610.26453	902.52051	-296.9075	1972.92761	1024.07202	-3102.19873	2012.48462	1022.1059	-3140.80151	NaN	NaN	NaN	-378.24545	1645.72327	-409.51422	NaN	NaN	NaN	NaN	NaN	NaN	NaN	NaN	NaN	NaN	NaN	NaN	NaN	NaN	NaN	NaN	NaN	NaN	NaN	NaN	NaN	NaN	NaN	NaN	NaN	NaN	NaN	NaN	NaN	NaN	NaN	NaN	NaN	NaN	NaN	NaN	NaN	NaN	NaN	NaN	NaN	NaN	NaN	NaN	NaN	NaN	NaN	NaN	NaN	NaN	NaN	NaN	NaN	NaN
37	0.36	-434.03598	543.79053	-541.60706	-440.88351	406.02869	-516.33813	-563.59009	1166.68933	-88.26673	-268.1904	1127.03076	-406.90707	-474.57037	927.66846	-116.97941	-313.46832	1300.88586	-585.09912	-545.62701	1033.30066	-67.35789	-495.86844	1250.83728	-159.31808	-346.30411	1337.4696	-278.82654	-389.98578	885.51959	-293.0296	-409.57007	1544.00159	-370.70166	-451.79306	863.87445	-75.89397	-320.10989	1608.17969	-498.55896	-311.22217	1621.65076	-386.94812	-279.71381	1289.72266	-420.4718	-750.25598	88.70339	-386.50269	-508.64337	915.50635	-70.63302	-399.6731	880.22363	-506.80573	-417.64044	1533.1991	-489.36481	-118.44782	1001.42303	-540.44263	-563.59631	260.31415	-508.15549	-261.59479	622.02881	-229.37579	-105.6477	947.2912	-563.57874	-569.47375	29.05319	-444.70313	-178.3976	493.53201	-267.20227	-416.34158	1374.71204	-445.2438	-205.73268	958.17767	-634.5968	-42.89688	985.18683	-530.92676	-329.08719	1123.88928	-671.59534	-315.60739	972.76007	-690.16241	-328.00128	407.03387	-241.02127	-441.87616	152.78862	-242.17523	-509.55191	1213.04614	-355.14352	-498.2952	280.77277	-262.34012	-517.32751	1108.64038	-410.51129	-578.24579	909.6405	-438.42682	-697.21619	91.99403	-441.2084	-563.23651	283.30139	-310.95395	-565.93518	905.18896	-298.38818	1973.15332	1023.43488	-3102.04004	2012.58313	1022.11426	-3140.77612	NaN	NaN	NaN	-332.75427	1647.53552	-411.10263	NaN	NaN	NaN	NaN	NaN	NaN	NaN	NaN	NaN	NaN	NaN	NaN	NaN	NaN	NaN	NaN	NaN	NaN	NaN	NaN	NaN	NaN	NaN	NaN	NaN	NaN	NaN	NaN	NaN	NaN	NaN	NaN	NaN	NaN	NaN	NaN	NaN	NaN	NaN	NaN	NaN	NaN	NaN	NaN	NaN	NaN	NaN	NaN	NaN	NaN	NaN	NaN	NaN	NaN
38	0.37	-405.67053	542.19495	-542.39392	-422.965	405.47113	-519.04559	-529.38757	1179.89014	-88.76168	-222.7578	1130.4834	-404.54031	-442.44858	940.00317	-110.59139	-265.07019	1306.06262	-583.46063	-513.26129	1047.2522	-64.82465	-458.29404	1260.65332	-160.20155	-304.16751	1340.92786	-277.71848	-345.03522	890.59882	-295.23264	-364.73953	1547.25977	-370.57492	-421.15897	875.94629	-67.71375	-274.745	1610.67444	-498.36624	-266.33636	1624.82507	-386.832	-234.25887	1293.02063	-417.66638	-743.20459	105.12968	-390.10547	-477.52664	929.67957	-65.01009	-355.43436	880.66577	-509.46329	-372.19626	1535.71179	-489.17862	-64.79654	1026.85083	-527.09204	-550.96259	267.84039	-510.61499	-204.8445	640.52911	-235.38892	-47.08612	973.50427	-547.00031	-569.66077	29.13132	-445.10336	-112.1833	518.73297	-272.6582	-371.21469	1377.08594	-445.56662	-144.4005	973.03638	-622.30444	11.19986	1017.70111	-514.5127	-272.57483	1128.52881	-668.71863	-251.98999	977.55115	-683.36603	-252.04031	414.05225	-245.14365	-334.69028	148.62119	-243.54108	-464.23898	1214.70667	-358.28177	-406.71429	268.06271	-263.79254	-471.50732	1110.73657	-413.22321	-532.44299	911.54895	-440.21323	-690.6308	103.85225	-444.38846	-472.14725	262.94501	-311.68674	-520.14673	908.07324	-299.90997	1973.11938	1023.83813	-3101.948	2012.47449	1022.039	-3140.7417	NaN	NaN	NaN	-287.59131	1650.57898	-411.85513	NaN	NaN	NaN	NaN	NaN	NaN	NaN	NaN	NaN	NaN	NaN	NaN	NaN	NaN	NaN	NaN	NaN	NaN	NaN	NaN	NaN	NaN	NaN	NaN	NaN	NaN	NaN	NaN	NaN	NaN	NaN	NaN	NaN	NaN	NaN	NaN	NaN	NaN	NaN	NaN	NaN	NaN	NaN	NaN	NaN	NaN	NaN	NaN	NaN	NaN	NaN	NaN	NaN	NaN
39	0.38	-376.16547	544.47223	-543.66113	-404.3111	410.47925	-521.78003	-493.44244	1193.01843	-90.34365	-176.99258	1134.97754	-401.72382	-408.49872	952.91486	-106.2599	-216.87878	1311.94775	-581.67883	-478.96738	1061.71924	-63.93591	-419.92126	1271.32617	-161.24828	-261.70181	1345.54504	-276.47302	-297.74017	897.00696	-295.93979	-319.56735	1551.43347	-369.72717	-387.95969	888.72284	-61.92303	-229.22705	1614.3064	-497.58554	-221.08876	1628.78894	-386.05624	-188.70633	1297.24084	-414.69516	-732.66388	123.57345	-394.31186	-444.3761	944.39703	-61.14693	-308.6127	883.05591	-509.80405	-326.65747	1539.44275	-488.2038	-14.82525	1052.56116	-515.32104	-533.93268	277.66873	-513.33984	-150.18117	658.64447	-241.01974	7.29176	1000.12512	-531.57526	-569.08057	29.26165	-445.72873	-50.4398	542.99457	-276.96512	-325.94296	1380.32654	-445.76498	-85.43038	989.40704	-611.26129	60.78811	1049.54688	-499.47394	-216.30914	1134.60681	-665.73633	-190.11868	984.20941	-677.02081	-177.43152	420.65286	-248.84961	-227.23012	146.6642	-246.89011	-418.83847	1217.39087	-360.82965	-313.98248	256.54767	-266.521	-425.17795	1113.46729	-416.27899	-485.31198	914.16016	-442.07275	-681.28552	119.00114	-448.4006	-378.57712	243.01352	-314.07791	-473.31921	911.70782	-301.68469	1973.23254	1022.84259	-3101.94653	2012.35767	1021.91229	-3140.79761	NaN	NaN	NaN	-242.73952	1654.49683	-411.79477	NaN	NaN	NaN	NaN	NaN	NaN	NaN	NaN	NaN	NaN	NaN	NaN	NaN	NaN	NaN	NaN	NaN	NaN	NaN	NaN	NaN	NaN	NaN	NaN	NaN	NaN	NaN	NaN	NaN	NaN	NaN	NaN	NaN	NaN	NaN	NaN	NaN	NaN	NaN	NaN	NaN	NaN	NaN	NaN	NaN	NaN	NaN	NaN	NaN	NaN	NaN	NaN	NaN	NaN
